<svg xmlns="http://www.w3.org/2000/svg" width="512.001" height="512.001" shape-rendering="geometricPrecision" text-rendering="geometricPrecision" image-rendering="optimizeQuality" fill-rule="evenodd" clip-rule="evenodd" viewBox="0 0 13546.66 13546.66"><path fill-rule="nonzero" d="M6773.39 0c1869.98 0 3563.54 758.26 4789.27 1984 1225.74 1225.73 1984 2919.17 1984 4789.39 0 1870.22-758.26 3563.66-1984 4789.27-1225.73 1225.74-2919.29 1984.01-4789.27 1984.01-1870.22 0-3563.66-758.27-4789.39-1984.01C758.26 10336.93-.01 8643.37-.01 6773.39-.01 4903.41 758.26 3209.73 1984 1984 3209.73 758.39 4903.17 0 6773.39 0zm959.96 6475.94l-733.72 593.21h2154.61v655.98H6360.1c-186.7 140.38-297.34 312.32-297.34 530.46 0 374.96 297.34 578.22 827.8 578.22 452.83 0 842.79-218.13 1155-670.84l859.23 578.22c-467.71 718.73-1311.95 1077.37-2108.3 1077.37-1045.94 0-1825.97-499.15-1825.97-1326.94 0-265.9 94.19-546.79 280.89-765.04H4392.3V7070.6h1373.13l750.17-593.09H4392.3v-655.98h2779.15c203.26-186.81 297.33-358.64 297.33-561.9 0-327.2-297.33-561.78-750.04-561.78-437.84 0-811.36 249.58-1077.37 670.85l-827.8-563.23C5266.4 4086.74 6000.01 3728.1 6796.49 3728.1c1077.24 0 1779.53 561.9 1779.53 1326.82 0 281.01-94.08 561.9-249.45 765.04h827.67v655.98H7733.35zm3196.19-3858.82C9866.08 1553.66 8396.46 895.75 6773.39 895.75c-1623.19 0-3092.81 658.03-4156.27 1721.37C1553.65 3680.58 895.75 5150.32 895.75 6773.39c0 1623.07 657.9 3092.69 1721.37 4156.15 1063.46 1063.47 2533.08 1721.37 4156.27 1721.37 1623.07 0 3092.69-657.9 4156.15-1721.37C11993 9866.2 12650.91 8396.58 12650.91 6773.39c0-1623.19-657.91-3092.81-1721.37-4156.27z"/></svg>