<svg version="1.1" id="Layer_1" xmlns="http://www.w3.org/2000/svg" xmlns:xlink="http://www.w3.org/1999/xlink" x="0px" y="0px"
	 width="100%" viewBox="0 0 512 512" enable-background="new 0 0 512 512" xml:space="preserve">
<path fill="#FFFFFF" opacity="1.000000" stroke="none" 
	d="
M235.000000,1.000002 
	C249.354233,1.000000 263.708466,1.000000 278.715546,1.384249 
	C285.370972,2.502333 291.381348,3.177796 297.374756,3.980109 
	C323.333588,7.455131 347.939636,15.563122 371.241638,27.196968 
	C390.491241,36.807590 408.418854,48.617813 424.652191,62.986897 
	C440.994751,77.452698 455.720520,93.244301 468.047424,111.261543 
	C479.173157,127.523140 488.540314,144.678085 495.658051,163.111649 
	C503.234650,182.733627 508.797699,202.790985 511.041504,223.740768 
	C511.446350,227.520401 512.334839,231.248245 513.000000,235.000000 
	C513.000000,249.354233 513.000000,263.708466 512.615723,278.715515 
	C511.144501,288.457916 510.725739,297.688812 508.838470,306.609039 
	C504.168549,328.681824 497.429749,350.154510 487.194672,370.356903 
	C477.304504,389.878387 465.528046,408.129486 451.004944,424.638580 
	C436.588440,441.026489 420.760437,455.720245 402.742340,468.045746 
	C386.480530,479.169830 369.317444,488.516144 350.895020,495.662872 
	C331.275482,503.273987 311.178558,508.674744 290.259125,511.038361 
	C286.480438,511.465302 282.751770,512.334778 279.000000,513.000000 
	C264.645782,513.000000 250.291550,513.000000 235.284470,512.615723 
	C231.047440,511.822906 227.406860,511.686798 223.888870,510.958435 
	C208.803574,507.835327 193.578247,505.182526 178.739838,501.128845 
	C162.761887,496.763885 147.721085,489.764862 133.201233,481.691223 
	C114.845108,471.484436 97.811417,459.462494 82.607338,444.988159 
	C75.411896,438.138031 68.520660,430.912262 62.034122,423.388885 
	C55.051628,415.290222 47.920231,407.134338 42.277821,398.112762 
	C35.166351,386.742340 29.041285,374.685028 23.307642,362.538422 
	C13.633024,342.042969 7.318795,320.444275 3.944386,297.994568 
	C3.286019,293.614471 1.997738,289.329071 0.999999,285.000000 
	C1.000000,266.312439 1.000000,247.624878 1.365835,228.317398 
	C2.838259,220.797195 3.565058,213.809967 5.120877,207.012512 
	C10.301974,184.375946 17.202002,162.308060 27.824709,141.536255 
	C38.031075,121.578583 50.292915,102.936844 65.339752,86.376740 
	C79.189072,71.134583 94.341255,57.206074 111.606323,45.693497 
	C127.872917,34.846722 144.810242,25.459881 163.078964,18.349733 
	C182.702484,10.712299 202.816299,5.356335 223.736252,2.962446 
	C227.516190,2.529903 231.246674,1.665192 235.000000,1.000002 
M84.482521,118.012619 
	C83.509773,119.320724 82.443237,120.569931 81.578857,121.946106 
	C73.375496,135.006668 64.180092,147.577240 57.332165,161.316544 
	C51.164886,173.690277 46.577293,187.094452 43.136940,200.516785 
	C39.596497,214.329666 37.830006,228.660995 36.174675,242.868866 
	C35.213997,251.114456 36.110512,259.565369 35.975208,267.920715 
	C35.747860,281.959991 38.384560,295.613190 41.639801,309.135773 
	C46.019413,327.329163 52.784206,344.625641 61.551025,361.211700 
	C71.248726,379.558899 83.355255,396.130005 97.696365,410.978668 
	C104.983353,418.523529 112.932480,425.653015 121.478035,431.705566 
	C134.188568,440.708099 147.153702,449.662231 161.018112,456.632782 
	C173.654419,462.985870 187.405563,467.488068 201.087494,471.284729 
	C213.101929,474.618591 225.633347,476.499878 238.064346,477.791931 
	C247.981369,478.822693 258.111115,478.396393 268.109650,477.890198 
	C278.411255,477.368622 288.855316,476.862640 298.905701,474.763580 
	C319.240326,470.516510 338.822723,463.929504 357.452576,454.341400 
	C385.566162,439.872345 409.549652,420.609711 429.477570,396.099457 
	C440.224579,382.881287 449.433228,368.610382 456.599915,353.309662 
	C462.756989,340.164612 467.729370,326.296204 471.609924,312.299744 
	C475.660004,297.691772 478.416443,282.646484 478.030792,267.264465 
	C477.850616,260.077942 478.375732,252.858719 477.910461,245.697906 
	C477.241211,235.398621 476.877350,224.944458 474.747192,214.903473 
	C470.437195,194.587326 463.813293,175.027618 454.279877,156.364731 
	C444.603577,137.422134 432.347504,120.464752 418.191742,104.824730 
	C407.460480,92.968269 394.986969,82.995003 381.786041,73.969604 
	C367.246460,64.028969 351.701019,55.996067 335.263550,49.695976 
	C316.489197,42.500221 297.027466,37.968231 277.056274,36.154499 
	C267.279358,35.266590 257.335724,35.613922 247.503189,36.109413 
	C237.867065,36.594994 228.228516,37.649643 218.675049,39.034203 
	C196.975250,42.179096 176.614700,49.499752 157.097229,59.398869 
	C128.940491,73.679764 104.642410,92.688774 84.482521,118.012619 
z"/>
<path fill="#47704C" opacity="1.000000" stroke="none" 
	d="
M513.000000,234.531342 
	C512.334839,231.248245 511.446350,227.520401 511.041504,223.740768 
	C508.797699,202.790985 503.234650,182.733627 495.658051,163.111649 
	C488.540314,144.678085 479.173157,127.523140 468.047424,111.261543 
	C455.720520,93.244301 440.994751,77.452698 424.652191,62.986897 
	C408.418854,48.617813 390.491241,36.807590 371.241638,27.196968 
	C347.939636,15.563122 323.333588,7.455131 297.374756,3.980109 
	C291.381348,3.177796 285.370972,2.502333 279.184204,1.384249 
	C356.927032,1.000000 434.854095,1.000000 513.000000,1.000000 
	C513.000000,78.687424 513.000000,156.375061 513.000000,234.531342 
z"/>
<path fill="#47704C" opacity="1.000000" stroke="none" 
	d="
M279.468658,513.000000 
	C282.751770,512.334778 286.480438,511.465302 290.259125,511.038361 
	C311.178558,508.674744 331.275482,503.273987 350.895020,495.662872 
	C369.317444,488.516144 386.480530,479.169830 402.742340,468.045746 
	C420.760437,455.720245 436.588440,441.026489 451.004944,424.638580 
	C465.528046,408.129486 477.304504,389.878387 487.194672,370.356903 
	C497.429749,350.154510 504.168549,328.681824 508.838470,306.609039 
	C510.725739,297.688812 511.144501,288.457916 512.615723,279.184204 
	C513.000000,356.927032 513.000000,434.854095 513.000000,513.000000 
	C435.312561,513.000000 357.624939,513.000000 279.468658,513.000000 
z"/>
<path fill="#47704C" opacity="1.000000" stroke="none" 
	d="
M0.999999,285.468658 
	C1.997738,289.329071 3.286019,293.614471 3.944386,297.994568 
	C7.318795,320.444275 13.633024,342.042969 23.307642,362.538422 
	C29.041285,374.685028 35.166351,386.742340 42.277821,398.112762 
	C47.920231,407.134338 55.051628,415.290222 62.034122,423.388885 
	C68.520660,430.912262 75.411896,438.138031 82.607338,444.988159 
	C97.811417,459.462494 114.845108,471.484436 133.201233,481.691223 
	C147.721085,489.764862 162.761887,496.763885 178.739838,501.128845 
	C193.578247,505.182526 208.803574,507.835327 223.888870,510.958435 
	C227.406860,511.686798 231.047440,511.822906 234.815811,512.615723 
	C157.073914,513.000000 79.147827,513.000000 1.000000,513.000000 
	C1.000000,437.312592 1.000000,361.624939 0.999999,285.468658 
z"/>
<path fill="#47704C" opacity="1.000000" stroke="none" 
	d="
M234.531342,1.000002 
	C231.246674,1.665192 227.516190,2.529903 223.736252,2.962446 
	C202.816299,5.356335 182.702484,10.712299 163.078964,18.349733 
	C144.810242,25.459881 127.872917,34.846722 111.606323,45.693497 
	C94.341255,57.206074 79.189072,71.134583 65.339752,86.376740 
	C50.292915,102.936844 38.031075,121.578583 27.824709,141.536255 
	C17.202002,162.308060 10.301974,184.375946 5.120877,207.012512 
	C3.565058,213.809967 2.838259,220.797195 1.365835,227.848740 
	C1.000000,152.405182 1.000000,76.810356 1.000000,1.000000 
	C78.687431,1.000000 156.375061,1.000000 234.531342,1.000002 
z"/>
<path fill="#47704C" opacity="1.000000" stroke="none" 
	d="
M84.740242,117.757637 
	C104.642410,92.688774 128.940491,73.679764 157.097229,59.398869 
	C176.614700,49.499752 196.975250,42.179096 218.675049,39.034203 
	C228.228516,37.649643 237.867065,36.594994 247.503189,36.109413 
	C257.335724,35.613922 267.279358,35.266590 277.056274,36.154499 
	C297.027466,37.968231 316.489197,42.500221 335.263550,49.695976 
	C351.701019,55.996067 367.246460,64.028969 381.786041,73.969604 
	C394.986969,82.995003 407.460480,92.968269 418.191742,104.824730 
	C432.347504,120.464752 444.603577,137.422134 454.279877,156.364731 
	C463.813293,175.027618 470.437195,194.587326 474.747192,214.903473 
	C476.877350,224.944458 477.241211,235.398621 477.910461,245.697906 
	C478.375732,252.858719 477.850616,260.077942 478.030792,267.264465 
	C478.416443,282.646484 475.660004,297.691772 471.609924,312.299744 
	C467.729370,326.296204 462.756989,340.164612 456.599915,353.309662 
	C449.433228,368.610382 440.224579,382.881287 429.477570,396.099457 
	C409.549652,420.609711 385.566162,439.872345 357.452576,454.341400 
	C338.822723,463.929504 319.240326,470.516510 298.905701,474.763580 
	C288.855316,476.862640 278.411255,477.368622 268.109650,477.890198 
	C258.111115,478.396393 247.981369,478.822693 238.064346,477.791931 
	C225.633347,476.499878 213.101929,474.618591 201.087494,471.284729 
	C187.405563,467.488068 173.654419,462.985870 161.018112,456.632782 
	C147.153702,449.662231 134.188568,440.708099 121.478035,431.705566 
	C112.932480,425.653015 104.983353,418.523529 97.696365,410.978668 
	C83.355255,396.130005 71.248726,379.558899 61.551025,361.211700 
	C52.784206,344.625641 46.019413,327.329163 41.639801,309.135773 
	C38.384560,295.613190 35.747860,281.959991 35.975208,267.920715 
	C36.110512,259.565369 35.213997,251.114456 36.174675,242.868866 
	C37.830006,228.660995 39.596497,214.329666 43.136940,200.516785 
	C46.577293,187.094452 51.164886,173.690277 57.332165,161.316544 
	C64.180092,147.577240 73.375496,135.006668 81.578857,121.946106 
	C82.443237,120.569931 83.509773,119.320724 84.740242,117.757637 
M235.043488,254.466248 
	C234.215317,255.287720 233.402359,256.125183 232.556610,256.928162 
	C223.896118,265.150787 214.302383,269.641235 201.665024,268.259979 
	C190.358047,267.024139 178.809357,268.000000 167.302673,268.000000 
	C167.302673,276.922852 167.302673,285.315552 167.302673,294.007202 
	C177.519196,294.007202 187.438278,294.007202 197.895187,294.007202 
	C190.649063,304.485413 187.563461,315.415070 188.871597,327.781952 
	C189.960648,338.077637 194.236526,346.783875 201.368668,353.604980 
	C213.325424,365.040283 228.527695,370.327362 244.661026,371.784302 
	C256.283936,372.833954 268.042786,372.669006 279.729431,370.127960 
	C300.698181,365.568634 318.195953,355.440002 332.149689,339.273438 
	C338.756653,331.618713 338.554413,331.411591 330.306366,325.822083 
	C321.853973,320.093994 313.370544,314.411652 305.078949,308.829315 
	C303.603577,310.570343 302.379547,311.887604 301.296539,313.312073 
	C286.843536,332.321838 268.538696,337.381927 247.916641,332.728271 
	C234.620743,329.727814 226.706482,320.403656 233.000671,303.723938 
	C235.684296,296.612274 241.078430,293.000031 248.675079,293.000031 
	C279.668640,292.999969 310.662231,293.000000 341.655792,293.000000 
	C343.399139,293.000000 345.142517,293.000000 346.748413,293.000000 
	C346.748413,284.277496 346.748413,276.335327 346.748413,267.848145 
	C320.201508,267.848145 293.900696,267.848145 267.011871,267.848145 
	C273.970337,262.180664 280.432526,257.177734 286.585083,251.819244 
	C291.055206,247.926025 295.467896,245.351501 301.906586,245.825409 
	C311.187683,246.508560 320.556549,246.000000 329.887939,246.000000 
	C335.490784,246.000000 341.093628,246.000000 346.667236,246.000000 
	C346.667236,237.015350 346.667236,228.621704 346.667236,219.926147 
	C336.765198,219.926147 327.190918,219.926147 317.303131,219.926147 
	C324.486084,207.854904 327.266907,195.334808 324.393127,181.858109 
	C321.190002,166.836929 311.276733,156.984131 298.326050,150.219131 
	C284.509766,143.001953 269.449219,140.466019 253.945404,142.094116 
	C244.909698,143.042984 235.692627,144.053680 227.067017,146.699097 
	C214.150635,150.660416 202.863693,158.014862 193.615601,168.001572 
	C189.470718,172.477478 186.024826,177.600662 182.116943,182.615936 
	C192.431183,189.714493 201.907028,196.243774 211.392380,202.759232 
	C214.107407,204.624161 215.388031,203.247498 217.106949,200.891174 
	C228.644958,185.074524 243.391068,176.258667 263.811951,179.956970 
	C272.722931,181.570786 279.858246,187.694153 282.086212,196.267303 
	C284.267853,204.662216 279.888275,210.919708 275.361847,217.123550 
	C273.160034,220.141281 270.278168,221.119980 266.409515,221.098328 
	C235.083664,220.923126 203.756393,221.000000 172.429565,221.000000 
	C170.677902,221.000000 168.926254,221.000000 167.221436,221.000000 
	C167.221436,229.661591 167.221436,237.603317 167.221436,246.051498 
	C193.111755,246.051498 218.786575,246.051498 246.009293,246.051498 
	C241.747849,249.344330 238.697617,251.701248 235.043488,254.466248 
z"/>
<path fill="#FFFFFF" opacity="1.000000" stroke="none" 
	d="
M235.345428,254.262207 
	C238.697617,251.701248 241.747849,249.344330 246.009293,246.051498 
	C218.786575,246.051498 193.111755,246.051498 167.221436,246.051498 
	C167.221436,237.603317 167.221436,229.661591 167.221436,221.000000 
	C168.926254,221.000000 170.677902,221.000000 172.429565,221.000000 
	C203.756393,221.000000 235.083664,220.923126 266.409515,221.098328 
	C270.278168,221.119980 273.160034,220.141281 275.361847,217.123550 
	C279.888275,210.919708 284.267853,204.662216 282.086212,196.267303 
	C279.858246,187.694153 272.722931,181.570786 263.811951,179.956970 
	C243.391068,176.258667 228.644958,185.074524 217.106949,200.891174 
	C215.388031,203.247498 214.107407,204.624161 211.392380,202.759232 
	C201.907028,196.243774 192.431183,189.714493 182.116943,182.615936 
	C186.024826,177.600662 189.470718,172.477478 193.615601,168.001572 
	C202.863693,158.014862 214.150635,150.660416 227.067017,146.699097 
	C235.692627,144.053680 244.909698,143.042984 253.945404,142.094116 
	C269.449219,140.466019 284.509766,143.001953 298.326050,150.219131 
	C311.276733,156.984131 321.190002,166.836929 324.393127,181.858109 
	C327.266907,195.334808 324.486084,207.854904 317.303131,219.926147 
	C327.190918,219.926147 336.765198,219.926147 346.667236,219.926147 
	C346.667236,228.621704 346.667236,237.015350 346.667236,246.000000 
	C341.093628,246.000000 335.490784,246.000000 329.887939,246.000000 
	C320.556549,246.000000 311.187683,246.508560 301.906586,245.825409 
	C295.467896,245.351501 291.055206,247.926025 286.585083,251.819244 
	C280.432526,257.177734 273.970337,262.180664 267.011871,267.848145 
	C293.900696,267.848145 320.201508,267.848145 346.748413,267.848145 
	C346.748413,276.335327 346.748413,284.277496 346.748413,293.000000 
	C345.142517,293.000000 343.399139,293.000000 341.655792,293.000000 
	C310.662231,293.000000 279.668640,292.999969 248.675079,293.000031 
	C241.078430,293.000031 235.684296,296.612274 233.000671,303.723938 
	C226.706482,320.403656 234.620743,329.727814 247.916641,332.728271 
	C268.538696,337.381927 286.843536,332.321838 301.296539,313.312073 
	C302.379547,311.887604 303.603577,310.570343 305.078949,308.829315 
	C313.370544,314.411652 321.853973,320.093994 330.306366,325.822083 
	C338.554413,331.411591 338.756653,331.618713 332.149689,339.273438 
	C318.195953,355.440002 300.698181,365.568634 279.729431,370.127960 
	C268.042786,372.669006 256.283936,372.833954 244.661026,371.784302 
	C228.527695,370.327362 213.325424,365.040283 201.368668,353.604980 
	C194.236526,346.783875 189.960648,338.077637 188.871597,327.781952 
	C187.563461,315.415070 190.649063,304.485413 197.895187,294.007202 
	C187.438278,294.007202 177.519196,294.007202 167.302673,294.007202 
	C167.302673,285.315552 167.302673,276.922852 167.302673,268.000000 
	C178.809357,268.000000 190.358047,267.024139 201.665024,268.259979 
	C214.302383,269.641235 223.896118,265.150787 232.556610,256.928162 
	C233.402359,256.125183 234.215317,255.287720 235.345428,254.262207 
z"/>
</svg>